<svg xmlns="http://www.w3.org/2000/svg" viewBox="0 0 377.94 59.94"><defs><style>.a{fill:#ffd655;}.b{fill:#282b2e;}.c{fill:#cea236;}.d{fill:#da2f47;}.e{fill:#292f33;}.f{fill:#fff;}</style></defs><title>名称未設定-1</title><path class="a" d="M233.3,367.1l-48.43.1a2,2,0,0,1-2-1.95h0l-.1-48.43a2,2,0,0,1,1.95-2h0l48.41-.11a2,2,0,0,1,2,2h0l.11,48.43a2,2,0,0,1-1.95,2h0" transform="translate(-179.06 -311)"/><path class="b" d="M233.18,311l-48.43.1a5.71,5.71,0,0,0-5.69,5.72l.1,48.43a5.71,5.71,0,0,0,5.72,5.69l48.43-.1a5.71,5.71,0,0,0,5.69-5.72l-.1-48.43a5.71,5.71,0,0,0-5.72-5.69m0,3.75a2,2,0,0,1,2,2h0l.11,48.43a2,2,0,0,1-1.95,2h0l-48.44.1a2,2,0,0,1-2-1.95h0l-.1-48.43a2,2,0,0,1,2-2h0l48.42-.1" transform="translate(-179.06 -311)"/><path class="c" d="M194,322.3a3.74,3.74,0,1,1-3.75-3.73A3.74,3.74,0,0,1,194,322.3h0" transform="translate(-179.06 -311)"/><path class="c" d="M194.43,360a3.74,3.74,0,1,1-3.81-3.67h0a3.74,3.74,0,0,1,3.81,3.67h0" transform="translate(-179.06 -311)"/><path class="c" d="M231.83,359.23a3.74,3.74,0,1,1-3.82-3.66,3.75,3.75,0,0,1,3.82,3.66h0" transform="translate(-179.06 -311)"/><path class="c" d="M231.1,321.84a3.74,3.74,0,1,1-3.81-3.67h0a3.74,3.74,0,0,1,3.81,3.67" transform="translate(-179.06 -311)"/><path class="d" d="M226.88,340.93A17.85,17.85,0,1,1,209,323.12a17.86,17.86,0,0,1,17.89,17.81h0" transform="translate(-179.06 -311)"/><path class="e" d="M216.47,352.72c-.05-.17-1.17-4.33-7.43-4.32s-7.37,4.16-7.42,4.35a.5.5,0,0,0,.37.6.49.49,0,0,0,.46-.13s1.94-1.84,6.59-1.86,6.59,1.83,6.59,1.85a.54.54,0,0,0,.36.14.49.49,0,0,0,.49-.49.69.69,0,0,0,0-.13Zm-9.72-14.44c-3.24-3.22-8.42-3.25-8.63-3.25a1,1,0,0,0,0,2,13.58,13.58,0,0,1,3.95.72,4.09,4.09,0,0,0-1,2.74c0,1.92,1.13,3.47,2.49,3.46s2.48-1.55,2.47-3.47a2.92,2.92,0,0,0,0-.51s0,0,0,0a1,1,0,0,0,.7-.29,1,1,0,0,0,0-1.38ZM219.91,335c-.22,0-5.4.05-8.62,3.27a1,1,0,0,0,0,1.4h0a1,1,0,0,0,.69.29h0a4.21,4.21,0,0,0,0,.51c0,1.92,1.13,3.46,2.49,3.46s2.48-1.55,2.47-3.47a4,4,0,0,0-1-2.74,13.79,13.79,0,0,1,4-.74,1,1,0,0,0,0-2Z" transform="translate(-179.06 -311)"/><rect class="e" x="188.45" y="345.67" width="41.2" height="10.17" rx="2.23" transform="translate(-179.73 -310.6) rotate(-0.11)"/><path class="f" d="M191.89,351.66l3.09,1.27a.47.47,0,0,1,.33.47.63.63,0,0,1-.12.42.38.38,0,0,1-.31.16,1.27,1.27,0,0,1-.47-.13l-3.67-1.66a.59.59,0,0,1-.26-.8h0a.65.65,0,0,1,.26-.26l3.64-1.68a1.25,1.25,0,0,1,.46-.15.39.39,0,0,1,.32.16.71.71,0,0,1,.14.42.5.5,0,0,1-.33.47Z" transform="translate(-179.06 -311)"/><path class="f" d="M196.26,353a.75.75,0,0,1,.26-.27.63.63,0,0,1,.35-.11.71.71,0,0,1,.63.36.65.65,0,0,1,.1.36.68.68,0,0,1-.1.36.73.73,0,0,1-.62.36.76.76,0,0,1-.61-.36.58.58,0,0,1-.1-.36A.67.67,0,0,1,196.26,353Zm0-3a.84.84,0,0,1,.26-.27.68.68,0,0,1,.36-.1.72.72,0,0,1,.63.35.78.78,0,0,1,.1.36.72.72,0,0,1-1,.65l0,0a.73.73,0,0,1-.27-.28.62.62,0,0,1-.1-.35.74.74,0,0,1,.1-.35Z" transform="translate(-179.06 -311)"/><path class="f" d="M199.48,351.19l.14-1.05h-.79a.45.45,0,0,1,0-.89h1l.2-1.49a.59.59,0,0,1,.13-.36.47.47,0,0,1,.32-.1.45.45,0,0,1,.3.1.37.37,0,0,1,.13.27,1.64,1.64,0,0,1,0,.23l-.19,1.35h.89l.2-1.49a.53.53,0,0,1,.13-.36.46.46,0,0,1,.32-.1.43.43,0,0,1,.29.1.31.31,0,0,1,.13.27.86.86,0,0,1,0,.23l-.19,1.35h.8a.44.44,0,0,1,.45.44.43.43,0,0,1-.12.31.4.4,0,0,1-.32.13h-.94l-.14,1.06h.8a.44.44,0,0,1,.32.12.45.45,0,0,1,.12.32.41.41,0,0,1-.37.45h-1l-.19,1.49a.54.54,0,0,1-.14.36.45.45,0,0,1-.31.1.41.41,0,0,1-.3-.11.31.31,0,0,1-.13-.27,1.8,1.8,0,0,1,0-.22l.19-1.34h-.89l-.18,1.46a.59.59,0,0,1-.13.36.47.47,0,0,1-.32.1.41.41,0,0,1-.3-.1.37.37,0,0,1-.13-.27,1.5,1.5,0,0,1,0-.22l.19-1.35h-.81a.46.46,0,0,1-.45-.46.4.4,0,0,1,.12-.29.42.42,0,0,1,.32-.13Zm1-1.06-.14,1.06h.87l.15-1.06Z" transform="translate(-179.06 -311)"/><path class="f" d="M204.29,353a.68.68,0,0,1,.26-.27.67.67,0,0,1,1,.24.68.68,0,0,1,.1.36.69.69,0,0,1-.1.37.72.72,0,0,1-.26.26.66.66,0,0,1-.36.11.73.73,0,0,1-.59-.36.58.58,0,0,1-.1-.36A.61.61,0,0,1,204.29,353Zm0-3a.73.73,0,0,1,1-.28.62.62,0,0,1,.27.26.73.73,0,0,1,0,.73.75.75,0,0,1-.62.37.69.69,0,0,1-.35-.11.73.73,0,0,1-.36-.62.7.7,0,0,1,.09-.35Z" transform="translate(-179.06 -311)"/><path class="f" d="M210.57,347.44a.58.58,0,0,1,.18-.23.37.37,0,0,1,.25-.06.58.58,0,0,1,.26.06.76.76,0,0,1,.21.19.62.62,0,0,1,.09.26.69.69,0,0,1-.08.28l-3.08,5.83a1,1,0,0,1-.16.21.27.27,0,0,1-.1.08.3.3,0,0,1-.16,0,.45.45,0,0,1-.25-.07.61.61,0,0,1-.2-.19.53.53,0,0,1-.08-.25,1.07,1.07,0,0,1,.09-.34ZM207.14,350a1.45,1.45,0,0,1-.52-.55,1.57,1.57,0,0,1,0-1.49,1.45,1.45,0,0,1,.51-.56,1.26,1.26,0,0,1,.73-.2,1.32,1.32,0,0,1,.72.19,1.47,1.47,0,0,1,.51.54,1.62,1.62,0,0,1,.18.74,1.49,1.49,0,0,1-.18.75,1.42,1.42,0,0,1-.51.55,1.38,1.38,0,0,1-1.44,0Zm1.06-.91a.62.62,0,0,0,.14-.39.68.68,0,0,0-.13-.4.49.49,0,0,0-.69,0l0,0a.58.58,0,0,0-.14.4.61.61,0,0,0,.13.39.47.47,0,0,0,.71,0Zm2.22,4.71a1.55,1.55,0,0,1-.53-2,1.45,1.45,0,0,1,.51-.56,1.38,1.38,0,0,1,1.44,0,1.64,1.64,0,0,1,.53.55,1.51,1.51,0,0,1,.18.75,1.49,1.49,0,0,1-.69,1.29,1.21,1.21,0,0,1-.72.2,1.28,1.28,0,0,1-.72-.2Zm1.06-.89a.57.57,0,0,0,.13-.4.56.56,0,0,0-.14-.41.44.44,0,0,0-.35-.16.46.46,0,0,0-.35.16.57.57,0,0,0-.13.4.65.65,0,0,0,.12.4.47.47,0,0,0,.66,0h0l0,0Z" transform="translate(-179.06 -311)"/><path class="f" d="M214,353.91a.65.65,0,0,1-.26-.26.73.73,0,0,1-.12-.35.79.79,0,0,1,.1-.37.65.65,0,0,1,.26-.26.71.71,0,0,1,.72,0,.68.68,0,0,1,.27.26.73.73,0,0,1-.26,1,.71.71,0,0,1-.72,0Zm-.33-6.07a.6.6,0,0,1,.18-.46.73.73,0,0,1,1,0,.6.6,0,0,1,.19.45l0,3.57a.58.58,0,0,1-.19.46.75.75,0,0,1-1,0,.61.61,0,0,1-.18-.46Z" transform="translate(-179.06 -311)"/><path class="f" d="M220.55,351.31l.36-.43a1.46,1.46,0,0,1,.36-.34.67.67,0,0,1,.34-.09.44.44,0,0,1,.37.16.65.65,0,0,1,.14.42,1.71,1.71,0,0,1-.5.9l-.24.25.64.7a1.67,1.67,0,0,1,.16.24.59.59,0,0,1,0,.22.62.62,0,0,1-.09.3.69.69,0,0,1-.24.24.62.62,0,0,1-.8-.11l-.65-.68a3.49,3.49,0,0,1-1.29.78,2.65,2.65,0,0,1-.74.11,2.69,2.69,0,0,1-1.15-.23,1.83,1.83,0,0,1-1.12-1.76,2,2,0,0,1,.35-1.13,3,3,0,0,1,1-.89,2.36,2.36,0,0,1-.47-.62,1.26,1.26,0,0,1-.14-.63,1.41,1.41,0,0,1,.25-.84,1.68,1.68,0,0,1,.74-.55,2.73,2.73,0,0,1,.94-.16,2.43,2.43,0,0,1,.89.17,2,2,0,0,1,.71.48,1.15,1.15,0,0,1,.29.79,1.48,1.48,0,0,1-.29.91,2.49,2.49,0,0,1-.86.72Zm-2.29-.57a2,2,0,0,0-.59.53,1,1,0,0,0-.19.59.86.86,0,0,0,.27.66,1,1,0,0,0,.7.24,1.38,1.38,0,0,0,.6-.13,2.33,2.33,0,0,0,.57-.42Zm1-2.38a.67.67,0,0,0-.45-.14.58.58,0,0,0-.26.06.68.68,0,0,0-.21.17.4.4,0,0,0-.08.23.61.61,0,0,0,.11.35,2.73,2.73,0,0,0,.39.44c.45-.22.68-.46.67-.72a.49.49,0,0,0-.18-.4Z" transform="translate(-179.06 -311)"/><path class="f" d="M226.17,351.48l-3.1-1.27a.51.51,0,0,1-.34-.47.72.72,0,0,1,.13-.42.38.38,0,0,1,.31-.16,1.27,1.27,0,0,1,.47.13l3.67,1.65a.53.53,0,0,1,.34.51.52.52,0,0,1-.34.53l-3.65,1.71a1.22,1.22,0,0,1-.46.13.36.36,0,0,1-.32-.16.67.67,0,0,1-.13-.41.49.49,0,0,1,.33-.48Z" transform="translate(-179.06 -311)"/><path class="f" d="M277.61,357c-1.81,0-20-.51-22.61-.51.16-2.67.16-13.45.16-14.6v-6.75c0-.81-.1-12.94-.16-14.4,2.83,0,19.75-.66,21.65-.81l.21,8.31c-1.87,0-9.77.25-10.68.25V335c1,0,6.84-.25,9-.46l.15,8.06c-1.36,0-8.06-.2-9.12-.2v6c1.31,0,8.92.1,11.29-.1Z" transform="translate(-179.06 -311)"/><path class="f" d="M281.49,354.67c.81-1.71,9.87-24.07,12.54-29.5h.67c2.82,4.23,9.47,14.4,10.93,16.61,1.77-2.56,8.1-12.28,10.57-15.95h.71c3.17,6.35,12.24,25.79,13.45,28.15l-9.45,3.82c-1.46-3.41-5.7-14-6.1-15.15-.54.81-6.29,8.91-9.72,13.4h-.7c-3.52-4.95-8.25-11.89-9-13.15-.66,2.28-3.93,12.9-4.79,14.9Z" transform="translate(-179.06 -311)"/><path class="f" d="M332.81,342.51c0-8.25,6.39-17.09,19.94-17.09,11,0,17.72,5.64,17.72,15.05,0,6.45-4.56,16.72-19.94,16.72C338.24,357.15,332.81,349.35,332.81,342.51Zm25.93-1.75c0-5.45-2.41-8.41-6.59-8.41-4.94,0-7.61,4.37-7.61,9.51,0,5.64,3,8.35,6.5,8.35,4.68,0,7.7-3.14,7.7-9.46Z" transform="translate(-179.06 -311)"/><path class="f" d="M389.28,343.46c0,9.32-4.62,14.5-12.08,18.23l-5.26-7.78c2.81-1.42,6.49-3.08,6.49-10.49v-6.73c0-.71-.15-9.57-.25-10.63h11.4c-.1.81-.25,5.59-.25,10.73Z" transform="translate(-179.06 -311)"/><path class="f" d="M409.1,343.51c0,4.28.15,11.94.2,12.94H398.13c0-1.86.09-11.89.09-13v-4.63c0-.76-.09-11.74-.09-12.8H409.3c0,.81-.2,7.71-.2,12.85Z" transform="translate(-179.06 -311)"/><path class="f" d="M441.58,356.8a39.65,39.65,0,0,1-5.44.35c-15,0-20.75-6.95-20.75-12.88,0-7.1,7.1-16.07,22.92-18.89l2,8.46c-9.36,1.56-13.19,5.34-13.19,9.32,0,3.32,3.42,5.7,9.57,5.7a44,44,0,0,0,4.42-.21Z" transform="translate(-179.06 -311)"/><path class="f" d="M445.5,342.51c0-8.25,6.4-17.09,19.94-17.09,11,0,17.73,5.64,17.73,15.05,0,6.45-4.56,16.72-19.94,16.72C450.9,357.15,445.5,349.35,445.5,342.51Zm25.93-1.75c0-5.45-2.41-8.41-6.6-8.41-4.93,0-7.6,4.37-7.6,9.51,0,5.64,3,8.35,6.5,8.35,4.64,0,7.66-3.16,7.66-9.45Z" transform="translate(-179.06 -311)"/><path class="f" d="M500.4,343.35c0,1.62.1,12.45.19,13.1H489.77c.2-1,.16-11.12.16-12v-7c0-1.31-.11-10.57-.21-11.39a159.59,159.59,0,0,1,17.22.5c6.75.87,10.43,3.42,10.43,7.36,0,3.57-2.07,6.29-5.7,8.56,1.36,1.46,8,7.6,9.22,9l-9,6.49-10.68-15.51c2.37-1.14,5-3.27,5-6.44,0-2-1.31-3.68-5.84-3.72Z" transform="translate(-179.06 -311)"/><path class="f" d="M525.32,337.58c0-.91,0-10.38-.19-11.59a140.89,140.89,0,0,1,17.67.7c12,1.52,14.2,7.46,14.2,10.93,0,13.91-16.92,19.38-31.91,19,.15-2,.25-12.59.25-13.75ZM536,348.65c4.12-.55,9.62-3.52,9.62-9.51,0-5.29-4.84-6.1-9.62-6.1Z" transform="translate(-179.06 -311)"/></svg>